<svg xmlns="http://www.w3.org/2000/svg" viewBox="0 0 1600 500" width="100%" height="100%">
  <defs>
    <linearGradient id="goldGrad" x1="0%" y1="0%" x2="100%" y2="100%">
      <stop offset="0%" stop-color="#FFE082" />
      <stop offset="50%" stop-color="#F4B740" />
      <stop offset="100%" stop-color="#B37D14" />
    </linearGradient>
  </defs>
  <g transform="translate(60, 40) scale(0.84)">
    <path fill="url(#goldGrad)" d="M 116,420 V 152 C 116,108 152,72 196,72 H 380 C 397.67,72 412,86.33 412,104 C 412,121.67 397.67,136 380,136 H 216 C 196.12,136 180,152.12 180,172 V 420 C 180,437.67 165.67,452 148,452 C 130.33,452 116,437.67 116,420 Z" />
    <path fill="url(#goldGrad)" d="M 180,248 H 340 C 362.09,248 380,265.91 380,288 C 380,310.09 362.09,328 340,328 H 260 C 242.33,328 228,342.33 228,360 C 228,377.67 242.33,392 260,392 H 340 C 397.44,392 444,345.44 444,288 C 444,230.56 397.44,184 340,184 H 180 V 248 Z" />
  </g>
  <text x="540" y="320" font-family="'Plus Jakarta Sans', 'Outfit', 'Inter', sans-serif" font-size="210" font-weight="800" letter-spacing="-4" fill="#FFFFFF">
    Feel<tspan fill="url(#goldGrad)">inx</tspan>
  </text>
  <!-- Premium Badge Tag -->
  <rect x="1220" y="140" width="280" height="70" rx="35" fill="url(#goldGrad)" />
  <text x="1360" y="187" font-family="'Plus Jakarta Sans', sans-serif" font-size="34" font-weight="800" letter-spacing="4" text-anchor="middle" fill="#0F0D13">
    PREMIUM
  </text>
</svg>
